<?xml version="1.0" encoding="UTF-8"?>
<svg version="1.1" xmlns="http://www.w3.org/2000/svg" width="1254" height="1254">
<path d="M0 0 C-0.87140625 0.59425781 -1.7428125 1.18851562 -2.640625 1.80078125 C-26.91557007 18.59226628 -43.93757477 39.76273113 -49.60522461 69.26464844 C-53.4439439 95.86267624 -46.86014267 120.59924978 -31 142 C-12.69937579 165.58747121 11.63744325 181.8109168 37 197 C37.87640137 197.52561523 38.75280273 198.05123047 39.65576172 198.59277344 C51.42093464 205.63065527 63.28545735 212.49617315 75.16870117 219.33227539 C83.64557113 224.20969727 92.08910258 229.14232502 100.52734375 234.08618164 C106.26491722 237.43705754 112.04227088 240.69345059 117.875 243.875 C144.95112042 258.7497138 171.73187421 275.84562057 196 295 C196.98484375 295.7734375 197.9696875 296.546875 198.984375 297.34375 C205.93961859 302.92366294 212.52227592 308.88005719 219 315 C219.49113281 315.45713379 219.98226563 315.91426758 220.48828125 316.38525391 C240.62773478 335.21617434 255.42060702 359.09859959 264.375 385.125 C264.6013916 385.76719482 264.8277832 386.40938965 265.06103516 387.07104492 C269.48890052 400.69230317 270.55189386 414.6581543 270.4375 428.875 C270.43512329 429.65859894 270.43274658 430.44219788 270.43029785 431.24954224 C270.37337737 443.2687911 269.46455713 454.43149609 266 466 C265.69964844 467.15113281 265.39929688 468.30226563 265.08984375 469.48828125 C258.72244453 492.50463774 245.03978074 511.7286456 229 529 C228.44957031 529.60457031 227.89914062 530.20914063 227.33203125 530.83203125 C202.47485835 557.03947033 163.06162543 572.73763972 127.33984375 573.921875 C126.23769531 573.94765625 125.13554688 573.9734375 124 574 C126.77843288 570.59010511 130.6190222 569.08925774 134.5 567.25 C145.30091089 561.97699967 154.76982093 555.71028681 164 548 C164.63808594 547.48566406 165.27617188 546.97132813 165.93359375 546.44140625 C181.83455089 533.37358179 191.86005789 514.94405694 199 496 C199.51240234 494.78183594 199.51240234 494.78183594 200.03515625 493.5390625 C207.05656792 475.06166338 208.0420322 451.83827531 202 433 C201.71793701 432.07864258 201.71793701 432.07864258 201.43017578 431.13867188 C196.87984122 416.5573293 188.88946311 403.59983589 179 392 C177.98873047 390.80697266 177.98873047 390.80697266 176.95703125 389.58984375 C147.01511654 355.30237681 103.30116908 333.64348412 64.42626953 310.99609375 C61.17759628 309.10346495 57.93033653 307.20843808 54.68359375 305.3125 C46.78877403 300.70373899 38.89328103 296.09627691 30.984375 291.51171875 C-37.01546589 252.05786741 -37.01546589 252.05786741 -64 226 C-65.16015625 224.93458984 -65.16015625 224.93458984 -66.34375 223.84765625 C-91.29530631 200.29736488 -106.76192438 166.33410782 -108.32421875 132.18359375 C-109.3364487 95.37306033 -96.08657789 63.63176566 -71 37 C-70.4121875 36.34773438 -69.824375 35.69546875 -69.21875 35.0234375 C-52.57752346 17.28739343 -30.2018703 6.23475899 -7 0 C-6.32332275 -0.2067334 -5.64664551 -0.4134668 -4.94946289 -0.62646484 C-3 -1 -3 -1 0 0 Z " fill="#1B1B1B" transform="translate(525,340)"/>
<path d="M0 0 C22.49680231 -0.02338954 44.99360261 -0.0410089 67.49041462 -0.05181217 C77.93672912 -0.05696227 88.38303606 -0.06398043 98.8293457 -0.07543945 C107.93732797 -0.08542562 117.04530476 -0.09186278 126.15329236 -0.09408849 C130.97316141 -0.09538893 135.79301478 -0.09843242 140.6128788 -0.10573006 C145.15591311 -0.11255237 149.69892539 -0.11460439 154.24196434 -0.11310768 C155.90311681 -0.11338123 157.56427007 -0.11534931 159.22541809 -0.11920547 C170.02292572 -0.14302653 180.75561103 -0.13266191 191.34765625 2.234375 C192.43900879 2.47623535 193.53036133 2.7180957 194.65478516 2.96728516 C195.77933105 3.22558105 196.90387695 3.48387695 198.0625 3.75 C199.24118652 4.01731934 200.41987305 4.28463867 201.63427734 4.56005859 C228.21733621 10.66839818 228.21733621 10.66839818 236.91088867 14.97900391 C238.98854752 15.99440291 241.08868587 16.9217695 243.2109375 17.83984375 C280.19232579 34.23365505 310.76914894 64.09683746 325.8125 101.875 C329.17872683 110.71407854 331.39766161 119.68888889 333 129 C333.11714355 129.67820801 333.23428711 130.35641602 333.35498047 131.05517578 C339.46306179 168.43881171 332.11649563 208.2545309 309.96484375 239.3984375 C309.31644531 240.25695312 308.66804688 241.11546875 308 242 C307.36191406 242.85851562 306.72382812 243.71703125 306.06640625 244.6015625 C291.25458534 263.58533296 273.29416049 277.98706824 252 289 C251.39752441 289.31420898 250.79504883 289.62841797 250.17431641 289.95214844 C220.73717538 305.08663466 188.70972534 309.5987418 156 309 C158.84066449 306.73156749 161.62371024 305.11945053 164.9296875 303.6171875 C165.88302979 303.17697266 166.83637207 302.73675781 167.81860352 302.28320312 C169.33151978 301.58614258 169.33151978 301.58614258 170.875 300.875 C180.12013307 296.52231976 188.70035229 291.97493066 197 286 C197.55913086 285.5987793 198.11826172 285.19755859 198.69433594 284.78417969 C223.18175625 266.99393792 240.7260155 243.94885686 252 216 C252.38929688 215.05769531 252.77859375 214.11539063 253.1796875 213.14453125 C258.23329107 200.19712054 261.10671635 186.11263311 261.23828125 172.234375 C261.246353 171.40149963 261.25442474 170.56862427 261.26274109 169.71051025 C261.27651576 167.94895462 261.28726722 166.18737303 261.29516602 164.42578125 C261.30658336 162.66332912 261.3268685 160.90090868 261.35668945 159.13867188 C261.84073159 130.43145789 253.70865219 101.57237239 237 78 C236.29617188 76.9996875 235.59234375 75.999375 234.8671875 74.96875 C220.95735127 56.0550453 203.58813562 42.02587358 183 31 C182.09765625 30.47921875 181.1953125 29.9584375 180.265625 29.421875 C154.44405885 15.24240226 124.62765869 14.98716064 96 14 C96 99.8 96 185.6 96 274 C91.18822505 272.39607502 87.3490505 270.64435365 83.08203125 268.0703125 C82.43138199 267.68377502 81.78073273 267.29723755 81.11036682 266.89898682 C79.0073895 265.64705415 76.90978018 264.38644962 74.8125 263.125 C73.36095819 262.25712624 71.90929742 261.38945144 70.45751953 260.52197266 C60.54982738 254.58911551 50.71491965 248.55013734 41.0078125 242.29345703 C38.93623059 240.95891897 36.85933156 239.63298448 34.78125 238.30859375 C33.47896917 237.47687166 32.17687496 236.64485725 30.875 235.8125 C29.99400635 235.24958252 29.99400635 235.24958252 29.09521484 234.67529297 C25.11773744 232.11773744 25.11773744 232.11773744 24 231 C23.89663853 228.66825139 23.85840384 226.3657801 23.86196899 224.03329468 C23.85914771 223.29573366 23.85632643 222.55817264 23.85341966 221.79826128 C23.84503509 219.30739164 23.84373206 216.81656623 23.84228516 214.32568359 C23.83761931 212.54693984 23.83247614 210.76819728 23.82688904 208.98945618 C23.81558287 205.14693691 23.80716046 201.30442552 23.80076981 197.46189499 C23.79009983 191.37517147 23.76985335 185.28850376 23.74765015 179.20181274 C23.68570617 161.88879989 23.63184322 144.57578882 23.59863281 127.26269531 C23.58022716 117.70963953 23.55120861 108.15667587 23.5106281 98.60368788 C23.48964091 93.55118179 23.47411281 88.49879143 23.47182083 83.44623947 C23.46965687 78.6806505 23.45361128 73.91530163 23.42743111 69.149786 C23.42030009 67.41131227 23.41810659 65.67280924 23.42153358 63.93432426 C23.45101253 46.11819355 21.61069386 28.23699114 9.9140625 13.88671875 C7.4043374 11.41284686 4.71200217 9.88540514 1.50390625 8.4609375 C0 7 0 7 -0.09399414 3.40869141 C-0.06297607 2.28382324 -0.03195801 1.15895508 0 0 Z " fill="#1B1B1B" transform="translate(535,276)"/>
<path d="M0 0 C3.4701616 1.35056808 6.50071436 2.81541819 9.6328125 4.8359375 C10.51122803 5.39917725 11.38964355 5.96241699 12.29467773 6.54272461 C13.69568726 7.44970093 13.69568726 7.44970093 15.125 8.375 C17.11825581 9.65531194 19.1117493 10.93525391 21.10546875 12.21484375 C22.1011084 12.85534668 23.09674805 13.49584961 24.12255859 14.15576172 C28.21099536 16.77616316 32.32449365 19.35592277 36.4375 21.9375 C48.39379898 29.46258729 60.24535928 37.16357285 72 45 C72.29765732 47.95573674 72.39795368 50.70275632 72.37181091 53.66125488 C72.37754776 55.0229668 72.37754776 55.0229668 72.3834005 56.41218805 C72.39273276 59.4735132 72.38066388 62.53439162 72.36889648 65.59570312 C72.37136299 67.7835153 72.37519987 69.97132631 72.38031006 72.15913391 C72.38866993 76.8829185 72.38782146 81.60658263 72.38012505 86.33036804 C72.36855943 93.81262805 72.38069348 101.29473269 72.39674377 108.77697754 C72.41720967 119.28214542 72.43005516 129.78729418 72.43383789 140.29248047 C72.43408276 140.9595162 72.43432763 141.62655193 72.43457992 142.31380087 C72.43711927 149.73558844 72.43769627 157.15737471 72.43664551 164.5791626 C72.43631256 167.25996907 72.43602713 169.94077555 72.43579102 172.62158203 C72.43572823 173.28295333 72.43566544 173.94432463 72.43560075 174.62573749 C72.43499333 185.70230682 72.45018411 196.77879592 72.47662407 207.85533285 C72.49334447 215.27835053 72.49168462 222.70105885 72.47580135 230.12407494 C72.46996302 234.7695476 72.48081985 239.41487691 72.49604797 244.06032372 C72.49974365 246.19746523 72.49675591 248.33463173 72.48617744 250.47175026 C72.3983473 269.50180159 73.52209743 291.17123704 87 306 C90.46527548 309.33376598 93.99802962 312.33201975 98 315 C98 316.98 98 318.96 98 321 C58.4 321 18.8 321 -22 321 C-22 315 -22 315 -20.4609375 313.453125 C-19.42839844 312.85757813 -19.42839844 312.85757813 -18.375 312.25 C-7.77355839 305.03877205 -4.1167545 290.50147998 -1.63265038 278.55584335 C0.01964657 268.28032902 -0.56061185 257.63034216 -0.56762695 247.25830078 C-0.55860008 244.55674924 -0.54840013 241.85522559 -0.53674316 239.15368652 C-0.51406437 233.36115043 -0.50209071 227.56867403 -0.49761391 221.77609634 C-0.49112558 213.40125936 -0.46814142 205.02652981 -0.44127061 196.65173636 C-0.39810484 183.0606454 -0.36807996 169.469559 -0.34643555 155.87841797 C-0.32539514 142.68438482 -0.29809345 129.49038885 -0.26245117 116.29638672 C-0.26025235 115.48162806 -0.25805352 114.6668694 -0.25578807 113.82742108 C-0.24471765 109.73957416 -0.23352498 105.65172758 -0.22227156 101.56388116 C-0.12923118 67.7092852 -0.05756635 33.85467479 0 0 Z " fill="#1A1A1A" transform="translate(559,659)"/>
<path d="M0 0 C-3.63 2.64 -7.26 5.28 -11 8 C-11.66 7.67 -12.32 7.34 -13 7 C-13 6.34 -13 5.68 -13 5 C-13.94875 5.20625 -14.8975 5.4125 -15.875 5.625 C-16.90625 5.74875 -17.9375 5.8725 -19 6 C-19.66 5.34 -20.32 4.68 -21 4 C-18.06520402 3.13541688 -15.12778481 2.28302813 -12.1875 1.4375 C-11.35412109 1.19064453 -10.52074219 0.94378906 -9.66210938 0.68945312 C-8.85966797 0.46064453 -8.05722656 0.23183594 -7.23046875 -0.00390625 C-6.49207764 -0.21861572 -5.75368652 -0.4333252 -4.99291992 -0.65454102 C-3 -1 -3 -1 0 0 Z " fill="#29292A" transform="translate(525,340)"/>
<path d="M0 0 C6.93 0.495 6.93 0.495 14 1 C14 1.33 14 1.66 14 2 C3.06028181 3.46560818 -7.98954106 3.09470423 -19 3 C-15.13209648 0.42139765 -12.23386085 0.98885495 -7.8125 1.375 C-6.68811523 1.46007812 -6.68811523 1.46007812 -5.54101562 1.546875 C-3.69323441 1.68810669 -1.846488 1.84276167 0 2 C0 1.34 0 0.68 0 0 Z " fill="#454545" transform="translate(710,582)"/>
<path d="M0 0 C1.9924325 0.37593066 3.9918674 0.71979545 6 1 C6 1.33 6 1.66 6 2 C0.06 2.33 -5.88 2.66 -12 3 C-7.44627028 -1.55372972 -5.91501195 -2.67583874 0 0 Z " fill="#3D3D3D" transform="translate(661,911)"/>
<path d="M0 0 C0.33 0.66 0.66 1.32 1 2 C1.66 2.33 2.32 2.66 3 3 C1.68 6.3 0.36 9.6 -1 13 C-1.99 13 -2.98 13 -4 13 C-3.79503906 12.39671875 -3.59007812 11.7934375 -3.37890625 11.171875 C-2.97478516 9.97304688 -2.97478516 9.97304688 -2.5625 8.75 C-2.29566406 7.96109375 -2.02882813 7.1721875 -1.75390625 6.359375 C-1.08045292 4.25178012 -0.50849405 2.15246027 0 0 Z " fill="#292929" transform="translate(555,947)"/>
<path d="M0 0 C0.33 0 0.66 0 1 0 C0.73781251 4.4571874 0.42288711 6.51522698 -2.5625 9.9375 C-3.366875 10.618125 -4.17125 11.29875 -5 12 C-5.33 11.34 -5.66 10.68 -6 10 C-4.8203125 7.6171875 -4.8203125 7.6171875 -3.125 4.875 C-2.57070313 3.96492187 -2.01640625 3.05484375 -1.4453125 2.1171875 C-0.96835937 1.41851563 -0.49140625 0.71984375 0 0 Z " fill="#282928" transform="translate(777,513)"/>
<path d="M0 0 C0.99 0.33 1.98 0.66 3 1 C0.03 3.64 -2.94 6.28 -6 9 C-6.66 8.67 -7.32 8.34 -8 8 C-5.36 5.36 -2.72 2.72 0 0 Z " fill="#313132" transform="translate(760,537)"/>
<path d="M0 0 C0.99 0.66 1.98 1.32 3 2 C1.5903653 2.70180531 0.17192359 3.38593958 -1.25 4.0625 C-2.03890625 4.44535156 -2.8278125 4.82820312 -3.640625 5.22265625 C-6 6 -6 6 -10 5 C-6.7 3.35 -3.4 1.7 0 0 Z " fill="#2A2B2B" transform="translate(720,570)"/>
<path d="M0 0 C-4.455 2.97 -4.455 2.97 -9 6 C-9 3 -9 3 -7 0 C-4.02096037 -1.15317663 -3.13440869 -1.0448029 0 0 Z " fill="#323232" transform="translate(525,340)"/>
<path d="M0 0 C4.09789669 0.37943488 6.53958935 0.69305957 10 3 C2.57142857 3.28571429 2.57142857 3.28571429 -1 1 C-0.67 0.67 -0.34 0.34 0 0 Z " fill="#131312" transform="translate(658,909)"/>
<path d="M0 0 C0.66 0 1.32 0 2 0 C0.73058503 3.91402949 -0.51167694 5.79072873 -4 8 C-4.66 7.67 -5.32 7.34 -6 7 C-5.04882866 5.8274869 -4.08882991 4.66212985 -3.125 3.5 C-2.59132813 2.8503125 -2.05765625 2.200625 -1.5078125 1.53125 C-0.76144531 0.77328125 -0.76144531 0.77328125 0 0 Z " fill="#252626" transform="translate(708,868)"/>
<path d="M0 0 C0.99 0.66 1.98 1.32 3 2 C-0.82320557 3.42258812 -3.91281305 4.24042276 -8 4 C-7.67 3.34 -7.34 2.68 -7 2 C-2.52459016 0.73770492 -2.52459016 0.73770492 0 2 C0 1.34 0 0.68 0 0 Z " fill="#373837" transform="translate(754,575)"/>
<path d="M0 0 C2.97 0 5.94 0 9 0 C8.67 0.99 8.34 1.98 8 3 C5.125 3.1875 5.125 3.1875 2 3 C1.34 2.01 0.68 1.02 0 0 Z " fill="#222222" transform="translate(703,277)"/>
<path d="M0 0 C0.33 0.99 0.66 1.98 1 3 C-1.475 4.485 -1.475 4.485 -4 6 C-4.66 5.34 -5.32 4.68 -6 4 C-4.02 2.68 -2.04 1.36 0 0 Z " fill="#272727" transform="translate(477,358)"/>
</svg>
